<?xml version="1.0" encoding="utf-8"?>
<svg id="master-artboard" viewBox="0 0 1400 980" version="1.1" xmlns="http://www.w3.org/2000/svg" x="0px" y="0px" style="enable-background:new 0 0 336 235.2;" width="1400px" height="980px"><g transform="matrix(1.345763799189155, 0, 0, 1.345763799189155, 27.118087310868873, 97.03630325817372)"><g>
	
		<path id="path7082" fill="#D51F26" d="&#10;&#9;&#9;M915.662,426.329c49.525-243.424,35.139-272.27,26.089-470.875C701.805-94.259,522.939-69.415,359.287-27.572L159.369,105.707&#10;&#9;&#9;l5.028,106.874c0,0-76.494-4.391-117.561,22.003C9.375,258.661,0,269.456,0,290.851c0,22.354,31.669,33.239,52.18,42.121&#10;&#9;&#9;c29.822,12.913,64.879,25.798,69.783,55.009c4.946,29.46-81.466,77.393-73.539,133.892c3.337,23.774,33.584,29.497,77.312,51.88&#10;&#9;&#9;l-12.573,19.175l52.18,30.177l9.744-12.887l22.316,10.686l5.345-10.058l-23.26-11.316l8.173-15.402l23.26,11.316l5.657-11.63&#10;&#9;&#9;l-24.203-10.373l5.028-11.632l-51.235-26.089l-10.373,18.859c0,0-56.267-18.595-56.267-56.896&#10;&#9;&#9;c0-41.745,62.239-76.732,62.239-108.674c0-16.13-9.589-27.788-20.118-40.006C95.885,319.111,27.75,324.74,19.322,290.208&#10;&#9;&#9;c-4.921-20.161,26.574-34.522,45.916-42.047c31.292-12.174,67.941-10.542,100.732-0.063l10.373,175.4l216.893,144.279&#10;&#9;&#9;l89.584,88.328l517.181-60.6c-14.019-62.03-36.12-122.163-84.338-169.179V426.329z" style="fill: rgb(0, 0, 0);"/>
	<path id="path7084" fill="#FFFFFF" d="M373.745-1.167&#10;&#9;&#9;c-7.709,151.287-15.596,302.627,33.948,437.554c177.934-37.206,336.443-53.853,485.964-60.98&#10;&#9;&#9;c39.939-155.472,24.011-276.271,17.604-402.979c-215.31-27.336-385.649-9.703-537.517,26.404V-1.167z"/>
	<path id="path7086" fill="#D51F26" d="M402.036,18.95&#10;&#9;&#9;c-7.713,138.425-12.817,275.401,23.891,389.148c148.995-33.332,297.991-44.772,446.986-51.551&#10;&#9;&#9;c26.905-121.544,17.903-243.087,8.801-364.63C727.09-14.879,574.445-27.61,402.036,18.95L402.036,18.95z" style="fill: rgb(0, 0, 0);"/>
	<path id="path7094" fill="#FFFFFF" d="M435.041,514.657&#10;&#9;&#9;l81.414,119.134c166.891-40.592,307.192-55.425,436.298-59.41c-17.593-42.895-33.438-86.303-60.666-126.361&#10;&#9;&#9;C594.973,459.73,507.475,486.648,435.041,514.657L435.041,514.657z"/>
	<path fill="#D51F26" d="M950.213,541.274l-10.67-20.447c-21.609,0.88-43.348,2.007-65.237,3.418l-15.196-35.177&#10;&#9;&#9;c22.937-1.098,45.567-1.877,67.985-2.473l-14.668-17.781c-20.36,0.913-40.547,2.072-60.575,3.455l-14.553-33.682l-27.561,2.22&#10;&#9;&#9;l14.741,33.521c-17.918,1.438-35.689,3.085-53.339,4.905l-17.415-38.427l-29.341,2.226l19.421,39.185&#10;&#9;&#9;c-18.217,2.097-36.295,4.393-54.223,6.901l-19.431-38.975l-27.116,0.445l21.507,42.166c-21.234,3.225-42.249,6.759-63.07,10.57&#10;&#9;&#9;l-21.563-42.512l-25.781,6.666l21.647,40.708c-18.351,3.602-36.548,7.424-54.573,11.489l-26.198-42.861l-21.338,12.447&#10;&#9;&#9;l22.615,36.184c-18.53,4.435-36.887,9.118-55.067,14.05l4.002,16.447c20.381-5.938,40.336-11.333,59.946-16.289l22.206,35.533&#10;&#9;&#9;c-19.335,4.624-38.855,9.601-58.593,14.985l4.891,18.67c21.986-5.608,43.654-10.77,65.033-15.526l23.874,38.198l24.004-4.889&#10;&#9;&#9;l-23.568-38.559c16.83-3.54,33.488-6.837,49.982-9.897l22.931,43.12l22.673-5.334l-21.367-42.132&#10;&#9;&#9;c21.428-3.719,42.595-7.056,63.535-10.052l21.4,41.959l24.005-3.111l-21.037-42.199c18.227-2.401,36.295-4.561,54.217-6.488&#10;&#9;&#9;l20.165,40.686l23.115-1.777l-18.766-41.408c17.627-1.712,35.128-3.219,52.522-4.545l18.254,41.508l26.229-2.668l-17.608-40.757&#10;&#9;&#9;C905.716,543.48,928.019,542.265,950.213,541.274z M551.685,569.541l-21.956-35.919c18.092-4.285,35.859-8.156,53.356-11.691&#10;&#9;&#9;l19.596,36.849C585.824,562.096,568.83,565.677,551.685,569.541z M627.228,554.11l-18.814-37.097&#10;&#9;&#9;c21.458-3.985,42.499-7.455,63.164-10.465l18.893,37.042C669.591,546.716,648.519,550.206,627.228,554.11z M714.985,540.07&#10;&#9;&#9;l-18.427-36.958c18.442-2.407,36.601-4.474,54.506-6.249l18.093,36.505C751.235,535.347,733.179,537.575,714.985,540.07z&#10;&#9;&#9; M794.479,530.727l-16.473-36.342c18.091-1.533,35.95-2.803,53.602-3.846l15.654,35.6&#10;&#9;&#9;C829.78,527.46,812.189,528.979,794.479,530.727z" style="fill: rgb(0, 0, 0);"/>
	<g id="layer1-6" transform="matrix(0.023502111434936523, -0.01615472137928009, 0.016325268894433975, 0.0237536933273077, 131.15173225166086, 986.8570032039486)">
		<path id="path844" fill="#FFFFFF" d="&#10;&#9;&#9;&#9;M8002.829,9433.201l-219.214,1005.611c-64.248,279.072-102.789,444.029-115.633,494.701&#10;&#9;&#9;&#9;c-12.84,49.234-26.949,85.519-42.402,108.721c-28.273,42.439-84.815,63.719-169.605,63.692&#10;&#9;&#9;&#9;c-109.171-0.041-197.933-22.585-296.895-67.771c-78.441-35.546-117.566-80.736-117.602-135.48&#10;&#9;&#9;&#9;c0.049-27.348,4.486-59.52,13.505-96.431c169.519-739.954,408.362-1592.271,601.577-2284.742&#10;&#9;&#9;&#9;c25.533-93.348,66.679-201.155,183.887-201.199c108.363,0.065,237.625,18.622,361.012,76.081&#10;&#9;&#9;&#9;c188.16,97.072,225.12,224.761,255.006,382.912c25.664,121.754,103.449,569.448,139.426,845.889&#10;&#9;&#9;&#9;c75.521-277.654,281.41-1029.83,350.209-1227.038c21.771-52.04,66.139-78.046,132.939-78.023&#10;&#9;&#9;&#9;c120.863,0.018,333.42,18.776,425.199,117.312c18.645,19.999,27.816,64.346,13.699,113.678&#10;&#9;&#9;&#9;c-237.762,828.389-410.135,1460.826-612.833,2222.285c-11.62,35.511-17.351,64.339-17.415,86.207&#10;&#9;&#9;&#9;c0.024,9.596,5.808,35.605,17.429,77.919c3.804,10.974,5.802,24.667,5.749,41.075c0.01,43.832-16.697,73.21-50.109,88.351&#10;&#9;&#9;&#9;c-38.551,19.128-95.762,28.69-171.557,28.695c-62.916,0.009-82.982-2.868-158.761-23.406&#10;&#9;&#9;&#9;c-74.563-20.493-136.852-45.136-186.961-73.912c-44.964-27.331-77.768-86.108-98.362-176.458&#10;&#9;&#9;&#9;C8131.619,10275.021,8069.502,9894.799,8002.829,9433.201L8002.829,9433.201z"/>
		<path id="path846" fill="#FFFFFF" d="M9868.055,8918.234&#10;&#9;&#9;&#9;c93.66,0.059,185.684,12.939,276.07,38.768c85.02,25.836,127.563,68.378,127.545,127.565&#10;&#9;&#9;&#9;c0.006,23.684-19.893,100.124-59.736,229.27c-25.777,85.023-74.738,256.665-146.896,515.002&#10;&#9;&#9;&#9;c-71.01,258.358-118.896,438.624-143.646,540.893c-97.938,394.991-154.469,611.929-169.543,650.56&#10;&#9;&#9;&#9;c-15.07,35.632-43.594,57.673-85.574,66.246c-29.104,5.407-61.352,8.104-96.883,8.11c-45.191-0.024-99.014-7.604-161.422-22.626&#10;&#9;&#9;&#9;c-61.381-15.063-108.719-32.335-142.105-51.629c-57.023-32.284-85.502-73.237-85.566-122.736&#10;&#9;&#9;&#9;c-0.016-72.121,67.281-349.242,201.848-831.477c53.809-192.683,118.307-410.617,193.648-653.858&#10;&#9;&#9;&#9;c76.473-244.386,123.279-384.274,140.504-419.776c17.238-36.604,44.09-59.228,80.695-67.838c15.105-4.28,38.75-6.434,71.043-6.444&#10;&#9;&#9;&#9;L9868.055,8918.234z"/>
		<path id="path848" fill="#FFFFFF" d="M11079.586,9425.223&#10;&#9;&#9;&#9;c-51.66,0.016-103.828,48.979-156.574,146.926c-83.969,156.057-145.871,317.499-185.715,484.387&#10;&#9;&#9;&#9;c-29.076,122.677-43.566,236.26-43.564,340.643c0.014,88.275,31.211,132.434,93.605,132.399&#10;&#9;&#9;&#9;c44.146-0.028,81.838-36.103,113.08-108.179c32.322-73.212,53.791-117.338,64.605-132.43&#10;&#9;&#9;&#9;c24.727-30.093,64.539-53.789,119.406-70.987c48.469-13.966,94.219-21.023,137.293-21.001&#10;&#9;&#9;&#9;c55.898-0.013,108.115,10.773,156.553,32.327c40.904,18.22,61.322,47.871,61.338,88.706&#10;&#9;&#9;&#9;c0.059,65.715-19.848,150.186-59.686,253.479c-38.768,102.292-84.025,187.365-135.619,255.18&#10;&#9;&#9;&#9;c-79.615,105.406-183.537,186.102-311.602,242.156c-100.133,44.135-198.031,66.149-293.889,66.201&#10;&#9;&#9;&#9;c-130.199-0.035-240.01-53.832-329.295-161.463c-108.742-131.306-163.086-312.689-163.098-544.115&#10;&#9;&#9;&#9;c0.016-289.494,60.297-569.373,180.807-839.534c111.92-249.714,259.389-434.322,442.385-553.782&#10;&#9;&#9;&#9;c139.887-90.42,285.75-135.604,437.539-135.602c147.422,0.01,260.453,43.066,339.02,129.162&#10;&#9;&#9;&#9;c68.9,76.439,103.314,186.733,103.328,330.941c0.045,139.975-31.195,237.89-93.637,293.865&#10;&#9;&#9;&#9;c-58.117,51.66-144.746,77.494-259.93,77.496c-119.488-0.025-179.225-31.752-179.23-95.273&#10;&#9;&#9;&#9;c-0.016-18.284,3.801-38.732,11.324-61.346c14-39.834,20.996-68.334,20.984-85.547&#10;&#9;&#9;&#9;C11149.014,9446.767,11125.859,9425.243,11079.586,9425.223L11079.586,9425.223z"/>
		<path id="path850" fill="#FFFFFF" d="&#10;&#9;&#9;&#9;M12526.385,10176.041c151.793,289.346,319.863,554.24,433.264,812.42c31.596,62.847-53.766,146.256-158.141,208.699&#10;&#9;&#9;&#9;c-103.316,62.42-174.359,80.11-243.23,80.016c-20.469,0.037-37.672-8.579-51.711-25.754&#10;&#9;&#9;&#9;c-145.93-259.5-322.727-632.553-430.775-823.061c-49.131,184.807-101.908,398.973-145.299,592.741&#10;&#9;&#9;&#9;c-15.602,58.537-63.057,78.517-103.994,78.59c-116.209-0.019-252.15-35.038-364.068-83.526&#10;&#9;&#9;&#9;c-49.34-22.168-79.781-64.783-61.668-126.752c93.387-345.549,329.543-1225.943,533.648-1907.532&#10;&#9;&#9;&#9;c24.73-73.587,51.102-80.687,112.973-80.687c135.598-0.016,248.895,21.003,336.117,62.993&#10;&#9;&#9;&#9;c45.859,23.646,83.434,56.353,71.137,104.622c-34.797,158.971-169.947,584.321-210.34,706.538&#10;&#9;&#9;&#9;c389.469-151.399,538.941-540.964,653.805-788.695c21.801-44.065,57.977-66.597,97.148-66.103&#10;&#9;&#9;&#9;c67.758,2.893,116.109,21.223,197.623,53.721c105.354,45.915,182.939,82.935,160.629,171.342&#10;&#9;&#9;&#9;C13264.602,9483.028,12941.754,9969.346,12526.385,10176.041z"/>
		<path id="path852" fill="#FFFFFF" d="M13844.666,9459.467&#10;&#9;&#9;&#9;c33.41,18.302,56.008,30.156,67.834,35.505c52.754,25.867,89.873,45.768,111.406,59.755&#10;&#9;&#9;&#9;c20.477,14.008,30.662,29.075,30.641,45.197c0.063,38.791-15.027,103.35-45.191,193.734c32.297,1.121,82.906,2.199,151.781,3.242&#10;&#9;&#9;&#9;c212.035,5.392,337.436,12.936,376.184,22.596c36.578,8.597,54.885,29.619,54.902,62.973&#10;&#9;&#9;&#9;c0.035,86.151-28.004,195.371-83.977,327.752c-21.539,50.574-41.932,85.073-61.32,103.357&#10;&#9;&#9;&#9;c-17.238,17.219-42.504,25.834-75.898,25.816c-20.422,0.027-48.949-1.615-85.574-4.878&#10;&#9;&#9;&#9;c-188.361-11.84-335.229-16.653-440.746-14.478l-69.457,279.271c50.672,2.188,128.629,3.797,234.129,4.875&#10;&#9;&#9;&#9;c191.617,1.046,302.973,5.9,334.223,14.512c35.488,9.686,53.26,37.641,53.281,83.968c-0.053,43.028-8.578,97.416-25.871,163.049&#10;&#9;&#9;&#9;c-17.18,65.708-37.082,120.562-59.709,164.682c-27.967,52.762-80.725,79.124-158.182,79.13l-314.867-6.485l-180.824-0.015&#10;&#9;&#9;&#9;c-125.918,0.021-206.141-6.46-240.541-19.33c-48.459-19.431-102.281-74.865-161.459-166.316&#10;&#9;&#9;&#9;c-37.711-59.193-56.5-110.328-56.551-153.385c0.051-19.393,5.93-53.279,17.799-101.713l79.074-342.291&#10;&#9;&#9;&#9;c-31.217-4.293-53.85-9.694-67.787-16.131c-21.563-11.849-32.34-33.958-32.27-66.184c-0.043-79.681,18.758-177.63,56.414-293.875&#10;&#9;&#9;&#9;c26.973-81.783,59.219-129.701,96.945-143.634c12.846-4.316,47.309-6.491,103.316-6.489l93.602-332.574&#10;&#9;&#9;&#9;c-38.742-0.037-74.742-3.246-108.148-9.707c-37.645-6.464-56.543-28.012-56.553-64.607c0.018-22.578,9.686-71.01,29.105-145.268&#10;&#9;&#9;&#9;c20.426-74.273,43.031-144.801,67.729-211.523c15.15-41.969,30.15-69.426,45.256-82.318&#10;&#9;&#9;&#9;c19.359-16.146,55.404-25.324,108.186-27.435c66.715-3.263,172.719-4.884,318.059-4.87c136.688,0.029,313.715,5.93,531.158,17.773&#10;&#9;&#9;&#9;c100.08,5.411,156.092,8.106,167.936,8.104c82.844,3.186,133.996,12.875,153.379,29.058c16.109,13.957,24.178,34.943,24.207,62.96&#10;&#9;&#9;&#9;c-0.041,66.697-21.012,163.046-62.984,288.977c-23.668,67.812-45.754,111.93-66.211,132.406&#10;&#9;&#9;&#9;c-21.484,22.615-53.283,33.879-95.246,33.871c-26.891,0.007-70.453-1.584-130.73-4.836&#10;&#9;&#9;&#9;c-163.613-7.508-372.418-15.574-626.467-24.193L13844.666,9459.467z"/>
		<path id="path854" fill="#FFFFFF" d="M15164.729,10539.955&#10;&#9;&#9;&#9;c38.752,3.252,83.447,4.829,134.053,4.836c100.121,0.03,216.898-1.066,350.348-3.198c19.367-0.005,33.91-0.003,43.578,0.016&#10;&#9;&#9;&#9;c62.404-0.048,93.641,22.039,93.621,66.158c0.014,68.892-26.898,177.624-80.715,326.106&#10;&#9;&#9;&#9;c-27.998,79.668-61.359,129.192-100.066,148.543c-21.531,10.781-58.707,17.219-111.432,19.367&#10;&#9;&#9;&#9;c-6.432,0.046-71.027,0.021-193.744,0.039c-250.805-4.315-378.344-7.044-382.633-8.109&#10;&#9;&#9;&#9;c-43.031-4.271-84.463-26.878-124.303-67.807c-46.307-48.43-103.361-135.046-171.182-259.939&#10;&#9;&#9;&#9;c-24.762-45.167-37.068-83.384-37.105-114.613c-0.004-98.999,118.91-552.719,356.773-1361.036&#10;&#9;&#9;&#9;c17.211-59.171,35.564-122.683,54.883-190.515c22.652-78.555,40.387-128.611,53.328-150.111&#10;&#9;&#9;&#9;c18.289-29.082,55.967-43.604,112.984-43.615c78.57,0.01,177.074,19.415,295.447,58.131&#10;&#9;&#9;&#9;c73.188,23.669,109.826,53.295,109.805,88.799c-0.027,31.207-23.691,122.701-71.068,274.476&#10;&#9;&#9;&#9;c-51.635,167.893-135.621,464.435-251.818,889.6C15212.074,10339.772,15185.199,10447.377,15164.729,10539.955z"/>
		<path id="path856" fill="#FFFFFF" d="&#10;&#9;&#9;&#9;M16936.354,9168.64l46.822-40.367c110.83-96.924,184.574-158.224,221.148-184.08c28.018-20.413,54.949-30.649,80.727-30.672&#10;&#9;&#9;&#9;c50.635,0.025,93.098,35.503,127.523,106.542c72.115,145.33,108.197,329.915,108.195,553.766&#10;&#9;&#9;&#9;c0.021,290.633-64.561,589.867-193.664,897.702c-93.678,222.796-228.244,397.68-403.674,524.67&#10;&#9;&#9;&#9;c-140.982,101.207-285.742,151.806-434.313,151.774c-158.174,0.037-298.127-61.331-419.721-184.007&#10;&#9;&#9;&#9;c-151.766-150.72-227.672-357.95-227.709-621.645c-0.01-320.738,82.912-622.63,248.678-905.715&#10;&#9;&#9;&#9;c143.133-245.423,333.602-413.863,571.494-505.339c69.975-27.995,137.23-41.969,201.838-41.958&#10;&#9;&#9;&#9;c67.777-0.01,101.682,26.913,101.674,80.701C16965.412,9009.856,16955.691,9076.014,16936.354,9168.64z M16899.369,9406.129&#10;&#9;&#9;&#9;c-167.998,81.539-308.775,264.882-381.18,426.068c-75.326,172.212-113.029,333.627-113.025,484.306&#10;&#9;&#9;&#9;c0,75.376,15.645,135.104,46.863,179.233c31.211,41.988,65.086,62.971,101.701,62.959&#10;&#9;&#9;&#9;c193.912,0.015,372.545-422.609,372.539-912.888C16926.277,9489.961,16899.369,9406.129,16899.369,9406.129z"/>
		<path id="path858" fill="#FFFFFF" d="&#10;&#9;&#9;&#9;M17858.273,9476.896c-23.684,7.533-56.531,20.426-98.508,38.744c-41.93,18.31-72.094,27.458-90.359,27.492&#10;&#9;&#9;&#9;c-28.01-0.056-42.008-16.153-41.975-48.444c0.008-11.856,12.846-66.23,38.762-163.061&#10;&#9;&#9;&#9;c41.914-155.036,68.295-243.801,79.055-266.411c17.227-34.432,52.736-61.385,106.592-80.71&#10;&#9;&#9;&#9;c135.551-49.543,286.781-74.281,453.684-74.261c275.504-0.018,494.539,69.417,657.094,208.256&#10;&#9;&#9;&#9;c96.844,81.793,170.064,185.692,219.559,311.608c46.268,116.26,69.428,237.852,69.449,364.879&#10;&#9;&#9;&#9;c-0.039,258.299-83.453,510.707-250.262,757.191c-130.191,193.77-308.859,346.597-535.961,458.548&#10;&#9;&#9;&#9;c-166.863,81.756-334.234,122.671-502.113,122.685c-62.479-0.023-111.453-14.584-146.941-43.592&#10;&#9;&#9;&#9;c-21.537-18.285-58.645-57.048-111.416-116.269c-51.643-59.172-88.238-103.875-109.814-134.009&#10;&#9;&#9;&#9;c-32.223-46.272-48.422-89.354-48.385-129.127c-0.018-83.961,36.014-254.037,108.121-510.208L17858.273,9476.896z&#10;&#9;&#9;&#9; M18134.031,9450.968c133.779,3.498,244.127,66.869,244.146,148.674c-0.025,20.436-11.322,75.344-33.91,164.631l-203.439,781.429&#10;&#9;&#9;&#9;c146.379-16.136,274.498-94.701,384.277-235.692c109.748-141.01,164.678-297.616,164.637-469.839&#10;&#9;&#9;&#9;c0.021-120.566-35-219.043-104.955-295.459C18470.275,9415.073,18297.824,9423.817,18134.031,9450.968z"/>
		<path id="path860" fill="#FFFFFF" d="M19968.945,9443.484c33.41,18.302,56,30.107,67.832,35.504&#10;&#9;&#9;&#9;c52.746,25.821,89.873,45.769,111.398,59.708c20.477,14.008,30.691,29.095,30.697,45.236&#10;&#9;&#9;&#9;c-0.012,38.78-15.084,103.312-45.24,193.742c32.289,1.075,82.926,2.172,151.809,3.263c212.008,5.371,337.43,12.887,376.186,22.595&#10;&#9;&#9;&#9;c36.541,8.591,54.83,29.581,54.846,62.934c0.055,86.125-27.957,195.362-83.928,327.745&#10;&#9;&#9;&#9;c-21.504,50.641-41.961,85.054-61.322,103.355c-17.238,17.221-42.531,25.815-75.898,25.816&#10;&#9;&#9;&#9;c-20.449,0.008-48.996-1.605-85.605-4.836c-188.348-11.854-335.197-16.694-440.705-14.532l-69.408,279.323&#10;&#9;&#9;&#9;c50.566,2.159,128.543,3.739,234.07,4.838c191.6,1.072,302.953,5.927,334.195,14.49c35.525,9.691,53.268,37.689,53.311,83.987&#10;&#9;&#9;&#9;c-0.053,43.028-8.635,97.379-25.873,163.05c-17.215,65.642-37.109,120.542-59.709,164.682&#10;&#9;&#9;&#9;c-27.992,52.743-80.752,79.104-158.229,79.138l-314.848-6.512l-180.844,0.013c-125.898-0.008-206.113-6.44-240.578-19.397&#10;&#9;&#9;&#9;c-48.393-19.344-102.215-74.777-161.375-166.258c-37.709-59.192-56.547-110.319-56.549-153.385&#10;&#9;&#9;&#9;c0.029-19.364,5.928-53.279,17.75-101.705l79.094-342.318c-31.188-4.272-53.764-9.637-67.807-16.103&#10;&#9;&#9;&#9;c-21.514-11.857-32.266-33.888-32.242-66.164c-0.039-79.682,18.777-177.659,56.49-293.865&#10;&#9;&#9;&#9;c26.916-81.821,59.201-129.673,96.861-143.691c12.895-4.324,47.336-6.472,103.299-6.461l93.619-332.604&#10;&#9;&#9;&#9;c-38.715-0.019-74.762-3.216-108.148-9.706c-37.664-6.437-56.514-27.992-56.469-64.55c-0.037-22.616,9.629-71.05,29.021-145.326&#10;&#9;&#9;&#9;c20.455-74.252,43.041-144.752,67.814-211.463c15.092-42.009,30.148-69.428,45.197-82.359&#10;&#9;&#9;&#9;c19.33-16.166,55.459-25.285,108.158-27.452c66.742-3.244,172.801-4.826,318.066-4.824c136.707,0.002,313.707,5.882,531.15,17.727&#10;&#9;&#9;&#9;c100.158,5.422,156.1,8.093,167.936,8.104c82.854,3.232,133.996,12.935,153.406,29.077c16.139,13.976,24.16,34.971,24.178,62.939&#10;&#9;&#9;&#9;c0.045,66.755-20.951,163.084-62.955,288.994c-23.668,67.813-45.754,111.932-66.18,132.367&#10;&#9;&#9;&#9;c-21.516,22.656-53.313,33.92-95.277,33.912c-26.938,0.016-70.453-1.583-130.777-4.827&#10;&#9;&#9;&#9;C20431.799,9460.17,20222.965,9452.083,19968.945,9443.484l0.084-0.005L19968.945,9443.484z"/>
		<path id="path864" fill="#FFFFFF" d="&#10;&#9;&#9;&#9;M23156.303,9844.51c-69.873,317.979-185.178,846.842-261.508,1133.379c-10.754,38.751-22.596,67.288-35.471,85.582&#10;&#9;&#9;&#9;c-23.711,33.354-71.07,50.089-142.094,50.048c-91.535-0.008-178.684-17.756-261.582-53.29&#10;&#9;&#9;&#9;c-65.621-27.979-98.492-63.51-98.492-106.574c0.049-21.488,3.781-46.782,11.313-75.866&#10;&#9;&#9;&#9;c10.775-37.648,34.996-132.938,72.633-285.764c134.516-532.774,271.777-1034.922,411.727-1506.303&#10;&#9;&#9;&#9;c19.359-66.755,41.402-109.854,66.164-129.172c23.689-19.388,50.08-29.087,79.117-29.073&#10;&#9;&#9;&#9;c88.246,0.015,184.006,22.592,287.336,67.83c81.867,34.442,134.648,70.502,158.305,108.172&#10;&#9;&#9;&#9;c47.342,72.118,87.684,182.438,121.051,330.971c21.541,95.805,47.383,252.418,77.461,469.818l108.203-452.063&#10;&#9;&#9;&#9;c66.75-275.499,106.514-428.935,119.439-460.104c18.299-40.938,55.443-61.393,111.406-61.382&#10;&#9;&#9;&#9;c81.77,0.01,173.285,22.595,274.451,67.78c45.232,20.484,74.293,39.304,87.221,56.585c11.822,16.119,17.74,35.477,17.723,58.057&#10;&#9;&#9;&#9;c-93.85,447.907-307.334,1268.86-442.33,1738.857c-9.691,28.006-14.551,50.559-14.561,67.799&#10;&#9;&#9;&#9;c0.035,7.547,4.863,27.995,14.541,61.38c3.285,8.608,4.844,19.35,4.859,32.247c0.012,34.502-13.969,57.615-41.949,69.481&#10;&#9;&#9;&#9;c-32.309,15.049-80.219,22.588-143.744,22.574c-52.686-0.004-110.834-8.057-174.314-24.222&#10;&#9;&#9;&#9;c-62.43-16.125-114.633-35.49-156.633-58.116c-37.646-21.532-65.119-67.823-82.314-138.842&#10;&#9;&#9;&#9;C23272.777,10570.363,23202.348,10143.727,23156.303,9844.51L23156.303,9844.51z"/>
		<path id="path889" fill="#FFFFFF" d="&#10;&#9;&#9;&#9;M21868.797,9197.626l46.803-40.34c110.877-96.871,184.576-158.224,221.197-184.028c27.99-20.493,54.863-30.707,80.689-30.737&#10;&#9;&#9;&#9;c50.588,0.033,93.146,35.556,127.58,106.58c72.125,145.314,108.129,329.891,108.174,553.793&#10;&#9;&#9;&#9;c0.006,290.6-64.531,589.827-193.748,897.644c-93.582,222.841-228.141,397.712-403.588,524.729&#10;&#9;&#9;&#9;c-141.049,101.185-285.783,151.802-434.303,151.762c-158.258-0.021-298.137-61.318-419.787-184.031&#10;&#9;&#9;&#9;c-151.756-150.734-227.662-357.905-227.645-621.62c-0.01-320.739,82.848-622.655,248.611-905.741&#10;&#9;&#9;&#9;c143.125-245.408,333.656-413.823,571.496-505.337c70.039-27.971,137.266-41.963,201.836-41.958&#10;&#9;&#9;&#9;c67.809,0.008,101.77,26.909,101.73,80.74C21897.809,9038.851,21888.164,9105.08,21868.797,9197.626z M21831.813,9435.115&#10;&#9;&#9;&#9;c-167.961,81.604-308.793,264.909-381.207,426.05c-75.299,172.23-113.021,333.673-113.016,484.352&#10;&#9;&#9;&#9;c0.02,75.349,15.607,135.099,46.824,179.229c31.238,42.006,65.133,62.961,101.73,62.977&#10;&#9;&#9;&#9;c193.875,0.011,372.543-422.608,372.539-912.889C21858.693,9518.989,21831.813,9435.115,21831.813,9435.115L21831.813,9435.115z"/>
	</g>
	<g id="g302" transform="matrix(0.04721352830529213, -0.0314512923359871, 0.0314512923359871, 0.04721352830529213, 177.28794114450386, 1034.400577280978)">
		<path id="path628" fill="#FFFFFF" d="M12564.037,4792.337&#10;&#9;&#9;&#9;c-0.002-124.135,101.744-226.575,227.021-226.57c125.508,0.001,227.889,102.443,227.871,226.544&#10;&#9;&#9;&#9;c0.01,126.332-102.34,227.905-227.881,227.891C12665.795,5020.225,12564.016,4918.649,12564.037,4792.337 M12791.051,5061.902&#10;&#9;&#9;&#9;c149.031-0.007,269.305-120.603,269.303-269.579c-0.018-147.899-120.26-268.146-269.318-268.158&#10;&#9;&#9;&#9;c-148.086,0.017-269.314,120.245-269.285,268.154C12521.748,4941.303,12642.939,5061.892,12791.051,5061.902"/>
		<path id="path630" fill="#FFFFFF" d="M12682.676,4641.653l165.254,0.014&#10;&#9;&#9;&#9;c29.783,1.12,59.566,15.188,68.381,47.164c3.902,12.93,9.969,34.221,2.691,59.831c-7.084,26.285-20.865,35.329-40.482,46.677&#10;&#9;&#9;&#9;c10.195,7.702,29.826,14.594,33.391,41.097c1.42,12.434,2.23,51.613,2.445,66.752c0.006,16.882,5.051,19.838,11.936,24.311&#10;&#9;&#9;&#9;l0.014,11.344l-66.191,0.005c-4.748-9.451-7.174-18.792-8.385-27.716c-0.482-14.862-0.486-38.579-0.002-60.388&#10;&#9;&#9;&#9;c-0.49-19.883-14.869-28.944-36.674-28.938l-71.404,0.007v116.966l-60.949-0.009 M12743.609,4769.954l83.643,0.004&#10;&#9;&#9;&#9;c14.328,0.009,39.664-14.304,36.074-43.378c0-21.21-9.596-33.57-36.59-33.567l-83.125-0.003L12743.609,4769.954z"/>
	</g>
</g></g></svg>