<svg xmlns="http://www.w3.org/2000/svg" width="14.314" height="24.423" viewBox="0 0 14.314 24.423">
  <defs>
    <style>
      .cls-1 {
        fill: #fff;
      }
    </style>
  </defs>
  <g id="location-svgrepo-com" transform="translate(-54.643)">
    <path id="Path_185" data-name="Path 185" class="cls-1" d="M61.8,0a7.165,7.165,0,0,0-7.157,7.157,7.091,7.091,0,0,0,.693,3.075c.009.021.019.041.029.061l5.407,10.47a1.156,1.156,0,0,0,2.055,0L68.233,10.3c.009-.018.018-.036.026-.055a7.091,7.091,0,0,0,.7-3.084A7.165,7.165,0,0,0,61.8,0Zm0,10.9a3.746,3.746,0,1,1,3.746-3.746A3.75,3.75,0,0,1,61.8,10.9Z"/>
    <path id="Path_186" data-name="Path 186" class="cls-1" d="M100.915,249.018H95.4a.694.694,0,0,0,0,1.388h5.514a.694.694,0,1,0,0-1.388Z" transform="translate(-36.359 -225.982)"/>
  </g>
</svg>
