<svg id="_2609570_media_social_trip_tripadvisor_icon" data-name="2609570_media_social_trip_tripadvisor_icon" xmlns="http://www.w3.org/2000/svg" width="36.8" height="36.8" viewBox="0 0 36.8 36.8">
  <defs>
    <style>
      .cls-1 {
        fill: #fff;
      }
    </style>
  </defs>
  <path id="Path_216" data-name="Path 216" d="M36.8,28.541A8.259,8.259,0,0,1,28.541,36.8H8.258A8.264,8.264,0,0,1,0,28.541V8.258A8.264,8.264,0,0,1,8.258,0H28.541A8.264,8.264,0,0,1,36.8,8.258Z"/>
  <g id="Group_21" data-name="Group 21" transform="translate(4.672 10.156)">
    <path id="Path_217" data-name="Path 217" class="cls-1" d="M90.623,146.8c1.833-.453,1.833-1.833,1.833-1.833H87.878a11.758,11.758,0,0,0-9.157-3.666,11.752,11.752,0,0,0-9.15,3.666H65s0,1.373,1.833,1.833a12.423,12.423,0,0,0-1.028,1.725,7.007,7.007,0,0,0-.8,2.853,6.126,6.126,0,0,0,6.411,6.4,7.413,7.413,0,0,0,5.491-2.746l1.833,2.746,1.833-2.746a7.425,7.425,0,0,0,5.491,2.746,6.124,6.124,0,0,0,6.4-6.4,6.8,6.8,0,0,0-.74-2.724A12.151,12.151,0,0,0,90.623,146.8ZM71.4,155.948a4.575,4.575,0,0,1,0-9.15,4.575,4.575,0,1,1,0,9.15Zm7.324-1.826a10.388,10.388,0,0,0-2.94-7.029,6.337,6.337,0,0,0-4.377-2.127,11.141,11.141,0,0,1,14.648,0,6.353,6.353,0,0,0-4.4,2.149A10.37,10.37,0,0,0,78.728,154.122Zm7.324,1.826a4.57,4.57,0,1,1,4.578-4.571A4.574,4.574,0,0,1,86.052,155.948Z" transform="translate(-65 -141.3)"/>
    <path id="XMLID_83_" class="cls-1" d="M346.113,268.7a.916.916,0,1,0,.913.92A.916.916,0,0,0,346.113,268.7Z" transform="translate(-325.061 -259.543)"/>
    <path id="Path_218" data-name="Path 218" class="cls-1" d="M322.446,243.3a2.749,2.749,0,1,0,2.746,2.753A2.747,2.747,0,0,0,322.446,243.3Zm0,4.578a1.829,1.829,0,1,1,1.833-1.826A1.83,1.83,0,0,1,322.446,247.878Z" transform="translate(-301.394 -235.969)"/>
    <path id="XMLID_80_" class="cls-1" d="M142.313,268.7a.916.916,0,1,0,.913.92A.916.916,0,0,0,142.313,268.7Z" transform="translate(-135.909 -259.543)"/>
    <path id="Path_219" data-name="Path 219" class="cls-1" d="M118.646,243.3a2.749,2.749,0,1,0,2.746,2.753A2.747,2.747,0,0,0,118.646,243.3Zm0,4.578a1.829,1.829,0,1,1,1.833-1.826A1.83,1.83,0,0,1,118.646,247.878Z" transform="translate(-112.242 -235.969)"/>
  </g>
</svg>
