<svg xmlns="http://www.w3.org/2000/svg" width="36.794" height="36.801" viewBox="0 0 36.794 36.801">
  <defs>
    <style>
      .cls-1 {
        fill-rule: evenodd;
      }

      .cls-2 {
        fill: #fff;
      }
    </style>
  </defs>
  <g id="_2613264_entertainment_nightlife_restaurants_services_shopping_icon" data-name="2613264_entertainment_nightlife_restaurants_services_shopping_icon" transform="translate(-0.04 0.01)">
    <path id="Path_221" data-name="Path 221" class="cls-1" d="M36.843,3.831c.829,1.1,1.2,2.911,1.386,5.118.243,3.294.341,7.246.434,11.33-.121,4.16-.17,8.356-.434,11.33-.208,2.283-.652,3.812-1.391,4.739a8.534,8.534,0,0,1-5.321,1.893c-3.131.267-6.994.264-11.255.369-4.737-.081-7.95-.046-11.32-.368a8.929,8.929,0,0,1-5.407-1.887c-.784-1.053-1.013-2.172-1.231-4.8-.271-3.029-.332-7.135-.434-11.259.154-4.1.164-8.239.437-11.33.183-2.439.472-4.078,1.213-5.121C4.558,2.966,6.33,2.526,8.974,2.309a95.7,95.7,0,0,1,11.284-.5c4.01.007,7.859.121,11.293.459,2.316.185,4.233.584,5.289,1.561Z" transform="translate(-1.83 -1.82)"/>
    <g id="_Group_" data-name="&lt;Group&gt;" transform="translate(9.688 7.109)">
      <path id="_Path_" data-name="&lt;Path&gt;" class="cls-2" d="M135.428,241.427a.955.955,0,0,0,.8.537h.053a26.226,26.226,0,0,0,3.487-1.058c1.047-.334,1.331-.425,1.414-.453a1.068,1.068,0,0,0,.769-1.013,1.132,1.132,0,0,0-.686-1.137c-.672-.274-.909-.371-1-.4h0c-3.6-1.487-3.619-1.488-3.829-1.49a.946.946,0,0,0-.844.475,7.717,7.717,0,0,0-.4,3.585A3.041,3.041,0,0,0,135.428,241.427Z" transform="translate(-135.15 -226.544)"/>
      <path id="_Path_2" data-name="&lt;Path&gt;" class="cls-2" d="M184.108,303.966a1.119,1.119,0,0,0-1.291.3l-.64.759-.061.072c-2.523,2.961-2.534,2.986-2.6,3.185a.862.862,0,0,0-.051.4,1.014,1.014,0,0,0,.241.548,7.971,7.971,0,0,0,4.054,1.585,1.316,1.316,0,0,0,.217-.016.951.951,0,0,0,.762-.6c.067-.2.072-.211.083-3.692,0,0,.008-1.443.009-1.486A1.053,1.053,0,0,0,184.108,303.966Z" transform="translate(-176.254 -289.132)"/>
      <path id="_Path_3" data-name="&lt;Path&gt;" class="cls-2" d="M165.5,100.885l0-.019a.969.969,0,0,0-.732-.679,10.237,10.237,0,0,0-5.316,1.495.983.983,0,0,0-.262.959c.1.217,4.049,6.423,4.5,7.128.4.645.827.97,1.278.97a1,1,0,0,0,.3-.049c.563-.173.827-.724.782-1.645C165.985,107.612,165.554,101.205,165.5,100.885Z" transform="translate(-157.413 -100.15)"/>
      <path id="_Path_4" data-name="&lt;Path&gt;" class="cls-2" d="M269.341,192.922a1.207,1.207,0,0,1-.709-.521,1.056,1.056,0,0,1,.022-1.27c.039-.051.882-1.2.882-1.2,2.023-2.767,2.065-2.823,2.238-2.935a.942.942,0,0,1,.969-.042,7.608,7.608,0,0,1,2.534,3.743v.053a.941.941,0,0,1-.4.865c-.174.112-.209.135-3.977,1.048A5.23,5.23,0,0,1,269.341,192.922Z" transform="translate(-258.783 -180.567)"/>
      <path id="_Path_5" data-name="&lt;Path&gt;" class="cls-2" d="M278.123,292.051c-.162-.121-.175-.131-3.488-1.22-.534-.176-1.349-.445-1.409-.468a1.069,1.069,0,0,0-1.216.373,1.137,1.137,0,0,0-.111,1.327l.564.917c1.972,3.2,2.057,3.324,2.224,3.455a.883.883,0,0,0,.553.192,1.087,1.087,0,0,0,.4-.082,7.582,7.582,0,0,0,2.817-3.58A.969.969,0,0,0,278.123,292.051Z" transform="translate(-261.846 -276.533)"/>
    </g>
  </g>
</svg>
